# xmcd
#
# Track frame offsets:
#	150
#	23180
#	39973
#	66353
#	89408
#	113940
#	132003
#	152223
#	165853
#	185078
#	203675
#	227538
#	247580
#	266560
#	289010
#	305540
#
# Disc length: 4386 seconds
#
# Revision: 1
# Processed by: cddbd v1.4b42PL1 Copyright (c) Steve Scherf et al.
# Submitted via: audiograbber 1.80
#
DISCID=ce112010
DTITLE=Teddy Pendergrass - A touch of class
DYEAR=1900
DGENRE=
TTITLE0=Can't we try
TTITLE1=Love T.K.O let me love you
TTITLE2=Com and go with me
TTITLE3=Only you
TTITLE4=Close the door
TTITLE5=I don't love you anymore
TTITLE6=The whole town's laughing at me
TTITLE7=I can't live without your love
TTITLE8=Nine times out of ten
TTITLE9=You can't hide from yourself
TTITLE10=Be sure
TTITLE11=The more I get the more I want
TTITLE12=Life is a song worth singing
TTITLE13=When somebody loves you back
TTITLE14=Turn of the light
TTITLE15=You're my latest, greatest inspiration
EXTD=
EXTT0=
EXTT1=
EXTT2=
EXTT3=
EXTT4=
EXTT5=
EXTT6=
EXTT7=
EXTT8=
EXTT9=
EXTT10=
EXTT11=
EXTT12=
EXTT13=
EXTT14=
EXTT15=
PLAYORDER=
